<svg width="192" height="192" viewBox="0 0 192 192" fill="none" xmlns="http://www.w3.org/2000/svg">
<rect width="192" height="192" fill="#D9D9D9"/>
<rect x="70" y="99" width="109" height="52" rx="8" fill="#D9D9D9" stroke="black" stroke-width="4"/>
<rect x="41" y="71" width="109" height="52" rx="8" fill="#D9D9D9" stroke="black" stroke-width="4"/>
<rect x="13" y="42" width="109" height="52" rx="8" fill="#D9D9D9" stroke="black" stroke-width="4"/>
<path d="M26.2273 86V51.0909H30.4545V82.25H46.6818V86H26.2273ZM79.9588 62H75.7315C75.4815 60.7841 75.044 59.7159 74.419 58.7955C73.8054 57.875 73.0554 57.1023 72.169 56.4773C71.294 55.8409 70.3224 55.3636 69.2543 55.0455C68.1861 54.7273 67.0724 54.5682 65.9134 54.5682C63.7997 54.5682 61.8849 55.1023 60.169 56.1705C58.4645 57.2386 57.1065 58.8125 56.0952 60.892C55.0952 62.9716 54.5952 65.5227 54.5952 68.5455C54.5952 71.5682 55.0952 74.1193 56.0952 76.1989C57.1065 78.2784 58.4645 79.8523 60.169 80.9205C61.8849 81.9886 63.7997 82.5227 65.9134 82.5227C67.0724 82.5227 68.1861 82.3636 69.2543 82.0455C70.3224 81.7273 71.294 81.2557 72.169 80.6307C73.0554 79.9943 73.8054 79.2159 74.419 78.2955C75.044 77.3636 75.4815 76.2955 75.7315 75.0909H79.9588C79.6406 76.875 79.0611 78.4716 78.2202 79.8807C77.3793 81.2898 76.3338 82.4886 75.0838 83.4773C73.8338 84.4545 72.4304 85.1989 70.8736 85.7102C69.3281 86.2216 67.6747 86.4773 65.9134 86.4773C62.9361 86.4773 60.2884 85.75 57.9702 84.2955C55.652 82.8409 53.8281 80.7727 52.4986 78.0909C51.169 75.4091 50.5043 72.2273 50.5043 68.5455C50.5043 64.8636 51.169 61.6818 52.4986 59C53.8281 56.3182 55.652 54.25 57.9702 52.7955C60.2884 51.3409 62.9361 50.6136 65.9134 50.6136C67.6747 50.6136 69.3281 50.8693 70.8736 51.3807C72.4304 51.892 73.8338 52.642 75.0838 53.6307C76.3338 54.608 77.3793 55.8011 78.2202 57.2102C79.0611 58.608 79.6406 60.2045 79.9588 62ZM105.881 59.8182C105.676 58.0909 104.847 56.75 103.392 55.7955C101.938 54.8409 100.153 54.3636 98.0398 54.3636C96.4943 54.3636 95.142 54.6136 93.983 55.1136C92.8352 55.6136 91.9375 56.3011 91.2898 57.1761C90.6534 58.0511 90.3352 59.0455 90.3352 60.1591C90.3352 61.0909 90.5568 61.892 91 62.5625C91.4545 63.2216 92.0341 63.7727 92.7386 64.2159C93.4432 64.6477 94.1818 65.0057 94.9545 65.2898C95.7273 65.5625 96.4375 65.7841 97.0852 65.9545L100.631 66.9091C101.54 67.1477 102.551 67.4773 103.665 67.8977C104.79 68.3182 105.864 68.892 106.886 69.6193C107.92 70.3352 108.773 71.2557 109.443 72.3807C110.114 73.5057 110.449 74.8864 110.449 76.5227C110.449 78.4091 109.955 80.1136 108.966 81.6364C107.989 83.1591 106.557 84.3693 104.67 85.267C102.795 86.1648 100.517 86.6136 97.8352 86.6136C95.3352 86.6136 93.1705 86.2102 91.3409 85.4034C89.5227 84.5966 88.0909 83.4716 87.0455 82.0284C86.0114 80.5852 85.4261 78.9091 85.2898 77H89.6534C89.767 78.3182 90.2102 79.4091 90.983 80.2727C91.767 81.125 92.7557 81.7614 93.9489 82.1818C95.1534 82.5909 96.4489 82.7955 97.8352 82.7955C99.4489 82.7955 100.898 82.5341 102.182 82.0114C103.466 81.4773 104.483 80.7386 105.233 79.7955C105.983 78.8409 106.358 77.7273 106.358 76.4545C106.358 75.2955 106.034 74.3523 105.386 73.625C104.739 72.8977 103.886 72.3068 102.83 71.8523C101.773 71.3977 100.631 71 99.4034 70.6591L95.108 69.4318C92.3807 68.6477 90.2216 67.5284 88.6307 66.0739C87.0398 64.6193 86.2443 62.7159 86.2443 60.3636C86.2443 58.4091 86.7727 56.7045 87.8295 55.25C88.8977 53.7841 90.3295 52.6477 92.125 51.8409C93.9318 51.0227 95.9489 50.6136 98.1761 50.6136C100.426 50.6136 102.426 51.017 104.176 51.8239C105.926 52.6193 107.313 53.7102 108.335 55.0966C109.369 56.483 109.915 58.0568 109.972 59.8182H105.881Z" fill="#6C6666"/>
</svg>